<svg width="748" height="255" viewBox="0 0 748 255" fill="none" xmlns="http://www.w3.org/2000/svg">
<mask id="mask0_4_34" style="mask-type:luminance" maskUnits="userSpaceOnUse" x="0" y="64" width="300" height="176">
<path d="M299.75 64H0V239.866H299.75V64Z" fill="white"/>
</mask>
<g mask="url(#mask0_4_34)">
<path d="M280.101 83.844C268.507 72.2529 253.076 65.299 236.712 64.291C220.349 63.283 204.181 68.2905 191.252 78.371C179.446 69.1985 164.921 64.2179 149.97 64.215C135.019 64.2121 120.493 69.1871 108.683 78.355C95.214 67.7863 78.219 62.7569 61.1675 64.2936C44.1161 65.8304 28.2942 73.8174 16.9319 86.6241C5.56962 99.4308 -0.476182 116.091 0.0287759 133.204C0.533735 150.317 7.55137 166.593 19.649 178.707L60.964 220.028C60.996 220.059 61.028 220.089 61.064 220.121C61.1 220.153 61.11 220.168 61.133 220.191C61.176 220.234 61.222 220.273 61.265 220.316C61.9217 220.966 62.5883 221.599 63.265 222.216C63.613 222.535 63.965 222.844 64.319 223.155C64.6063 223.405 64.895 223.653 65.185 223.898C76.9622 233.877 91.8151 239.5 107.248 239.82C122.682 240.141 137.755 235.141 149.937 225.659C162.866 235.739 179.034 240.747 195.397 239.739C211.761 238.731 227.192 231.777 238.786 220.186L280.102 178.871C292.685 166.26 299.751 149.172 299.751 131.357C299.751 113.542 292.684 96.4551 280.101 83.844ZM149.957 81.716C159.78 81.7097 169.384 84.6178 177.553 90.0721C185.723 95.5264 192.09 103.282 195.85 112.356C199.61 121.431 200.593 131.418 198.675 141.051C196.757 150.685 192.024 159.533 185.075 166.476L149.957 201.593L114.838 166.476C107.889 159.533 103.156 150.685 101.238 141.051C99.3199 131.417 100.303 121.431 104.063 112.356C107.823 103.281 114.191 95.5259 122.36 90.0717C130.53 84.6175 140.134 81.7095 149.957 81.716ZM58.975 172.674C58.9571 166.149 60.2337 159.686 62.7307 153.658C65.2277 147.63 68.8956 142.157 73.522 137.556L82.869 128.209C82.4165 137.552 83.9242 146.886 87.2953 155.611C90.6664 164.336 95.8263 172.259 102.443 178.871L136.843 213.271C129.423 218.468 120.719 221.529 111.679 222.119C102.64 222.709 93.6113 220.807 85.5786 216.619C77.5459 212.43 70.817 206.118 66.1255 198.368C61.4341 190.619 58.96 181.73 58.973 172.671L58.975 172.674ZM32.042 166.311C23.2515 157.523 18.0766 145.757 17.5395 133.339C17.0024 120.92 21.1421 108.751 29.1409 99.237C37.1397 89.7224 48.416 83.5536 60.7421 81.9491C73.0683 80.3446 85.548 83.4212 95.716 90.571L61.127 125.16C54.8679 131.385 49.9057 138.79 46.5276 146.946C43.1496 155.102 41.4227 163.846 41.447 172.674C41.447 173.716 41.4713 174.754 41.52 175.789L32.042 166.311ZM191.275 222.337C181.128 222.361 171.221 219.253 162.906 213.437L197.475 178.871C204.092 172.259 209.251 164.336 212.622 155.611C215.993 146.886 217.501 137.552 217.049 128.209L226.396 137.556C233.342 144.502 238.071 153.351 239.987 162.985C241.904 172.619 240.92 182.605 237.16 191.68C233.401 200.755 227.035 208.511 218.868 213.968C210.7 219.425 201.098 222.337 191.275 222.337ZM267.708 166.476L258.395 175.789C258.442 174.755 258.466 173.717 258.468 172.674C258.492 163.846 256.765 155.101 253.387 146.946C250.009 138.79 245.046 131.385 238.787 125.16L204.222 90.594C214.408 83.5058 226.879 80.488 239.179 82.1347C251.479 83.7813 262.717 89.9732 270.68 99.4911C278.643 109.009 282.754 121.163 282.204 133.561C281.654 145.958 276.483 157.701 267.708 166.476Z" fill="#646CFF"/>
</g>
<path d="M498.115 224H463.662V140.123L445 224H407.676L389.014 140.636V224H355.176V74.0879H405.112L426.338 172.218C439.668 111.036 446.777 78.3262 447.666 74.0879H498.115V224ZM569.79 225.948C563.091 225.948 556.973 224.889 551.436 222.77C545.967 220.65 541.353 217.779 537.593 214.156C533.901 210.465 530.791 206.124 528.262 201.134C523.477 191.7 521.084 180.558 521.084 167.706C521.084 154.444 523.169 143.028 527.339 133.458C529.595 128.263 532.432 123.785 535.85 120.025C539.268 116.266 543.54 113.292 548.667 111.104C553.862 108.849 559.434 107.721 565.381 107.721C571.396 107.721 576.592 108.438 580.967 109.874C585.41 111.241 589.102 113.019 592.041 115.206C594.98 117.394 597.544 120.06 599.731 123.204C601.919 126.349 603.594 129.459 604.756 132.535C605.918 135.543 606.875 138.858 607.627 142.481C608.652 147.813 609.165 153.521 609.165 159.605V175.807H556.46C557.28 192.213 563.091 200.416 573.892 200.416C581.343 200.416 591.528 196.554 604.448 188.829V216.822C594.263 222.906 582.71 225.948 569.79 225.948ZM565.996 132.228C560.664 132.228 557.622 138.927 556.87 152.325H574.609C574.062 138.927 571.191 132.228 565.996 132.228ZM667.202 72.0371C680.806 72.0371 691.162 75.7285 698.271 83.1113C705.381 90.4258 708.936 100.475 708.936 113.258C708.936 121.666 707.432 129.698 704.424 137.354C701.416 145.011 697.383 152.564 692.324 160.016C687.334 167.467 678.447 179.293 665.664 195.494H712.012V224H625.264V201.441L651.924 163.707C655.547 158.58 658.315 154.513 660.229 151.505C662.212 148.497 664.399 144.771 666.792 140.328C671.304 131.852 673.56 123.272 673.56 114.591C673.56 109.874 672.739 106.285 671.099 103.824C669.458 101.295 667.236 100.03 664.434 100.03C661.152 100.03 657.871 101.432 654.59 104.234C651.719 106.764 649.189 109.259 647.002 111.72C644.814 114.181 643.652 115.514 643.516 115.719L623.726 94.8008C630.698 87.1445 637.534 81.4365 644.233 77.6768C651.001 73.917 658.657 72.0371 667.202 72.0371Z" fill="black"/>
</svg>
